<mxfile host="Electron" agent="Mozilla/5.0 (Windows NT 10.0; Win64; x64) AppleWebKit/537.36 (KHTML, like Gecko) draw.io/24.7.8 Chrome/128.0.6613.36 Electron/32.0.1 Safari/537.36" version="24.7.8">
  <diagram name="Data Flow Diagrams" id="b520641d-4fe3-3701-9064-5fc419738815">
    <mxGraphModel dx="1219" dy="722" grid="1" gridSize="10" guides="1" tooltips="1" connect="1" arrows="1" fold="1" page="1" pageScale="1" pageWidth="1100" pageHeight="850" background="none" math="0" shadow="0">
      <root>
        <mxCell id="0" />
        <mxCell id="1" parent="0" />
        <mxCell id="btqrH7T7CtDXu2hgY2Os-8" value="1. Регистрация пациентов" style="swimlane;whiteSpace=wrap;html=1;" parent="1" vertex="1">
          <mxGeometry x="100" y="160" width="1260" height="320" as="geometry" />
        </mxCell>
        <mxCell id="C3LXq0iqgYzV6oALjHbz-5" value="Файлы пациента в разных форматах на общем диске" style="html=1;dashed=0;whiteSpace=wrap;shape=partialRectangle;right=0;left=0;" parent="btqrH7T7CtDXu2hgY2Os-8" vertex="1">
          <mxGeometry x="691" y="185" width="120" height="60" as="geometry" />
        </mxCell>
        <mxCell id="NuGAk5j5LmfKKiWQiwvZ-21" value="Excel-файл со списком пациентов на общем диске" style="html=1;dashed=0;whiteSpace=wrap;shape=partialRectangle;right=0;left=0;" parent="btqrH7T7CtDXu2hgY2Os-8" vertex="1">
          <mxGeometry x="691" y="100" width="120" height="60" as="geometry" />
        </mxCell>
        <mxCell id="C3LXq0iqgYzV6oALjHbz-1" value="Пациент" style="html=1;dashed=0;whiteSpace=wrap;" parent="btqrH7T7CtDXu2hgY2Os-8" vertex="1">
          <mxGeometry x="60" y="143" width="100" height="60" as="geometry" />
        </mxCell>
        <mxCell id="C3LXq0iqgYzV6oALjHbz-2" value="Регистрация на респшене" style="shape=ellipse;html=1;dashed=0;whiteSpace=wrap;aspect=fixed;perimeter=ellipsePerimeter;" parent="btqrH7T7CtDXu2hgY2Os-8" vertex="1">
          <mxGeometry x="360" y="113" width="120" height="120" as="geometry" />
        </mxCell>
        <mxCell id="C3LXq0iqgYzV6oALjHbz-3" value="" style="endArrow=classic;html=1;rounded=0;exitX=1;exitY=0.5;exitDx=0;exitDy=0;entryX=0;entryY=0.5;entryDx=0;entryDy=0;" parent="btqrH7T7CtDXu2hgY2Os-8" source="C3LXq0iqgYzV6oALjHbz-1" target="C3LXq0iqgYzV6oALjHbz-2" edge="1">
          <mxGeometry width="50" height="50" relative="1" as="geometry">
            <mxPoint x="430" y="253" as="sourcePoint" />
            <mxPoint x="480" y="203" as="targetPoint" />
          </mxGeometry>
        </mxCell>
        <mxCell id="C3LXq0iqgYzV6oALjHbz-4" value="Персональные и медицинские&amp;nbsp;&lt;div&gt;данные пациента&lt;/div&gt;" style="edgeLabel;html=1;align=center;verticalAlign=middle;resizable=0;points=[];" parent="C3LXq0iqgYzV6oALjHbz-3" vertex="1" connectable="0">
          <mxGeometry x="-0.0424" relative="1" as="geometry">
            <mxPoint as="offset" />
          </mxGeometry>
        </mxCell>
        <mxCell id="C3LXq0iqgYzV6oALjHbz-6" value="" style="endArrow=classic;html=1;rounded=0;exitX=1;exitY=1;exitDx=0;exitDy=0;entryX=0;entryY=0.5;entryDx=0;entryDy=0;edgeStyle=orthogonalEdgeStyle;" parent="btqrH7T7CtDXu2hgY2Os-8" source="C3LXq0iqgYzV6oALjHbz-2" target="C3LXq0iqgYzV6oALjHbz-5" edge="1">
          <mxGeometry width="50" height="50" relative="1" as="geometry">
            <mxPoint x="170" y="183" as="sourcePoint" />
            <mxPoint x="370" y="183" as="targetPoint" />
          </mxGeometry>
        </mxCell>
        <mxCell id="C3LXq0iqgYzV6oALjHbz-7" value="Персональные и медицинские&amp;nbsp;&lt;div&gt;данные пациента&lt;/div&gt;" style="edgeLabel;html=1;align=center;verticalAlign=middle;resizable=0;points=[];" parent="C3LXq0iqgYzV6oALjHbz-6" vertex="1" connectable="0">
          <mxGeometry x="-0.0424" relative="1" as="geometry">
            <mxPoint as="offset" />
          </mxGeometry>
        </mxCell>
        <mxCell id="NuGAk5j5LmfKKiWQiwvZ-22" value="" style="endArrow=classic;html=1;rounded=0;exitX=1;exitY=0;exitDx=0;exitDy=0;entryX=0;entryY=0.5;entryDx=0;entryDy=0;edgeStyle=orthogonalEdgeStyle;" parent="btqrH7T7CtDXu2hgY2Os-8" source="C3LXq0iqgYzV6oALjHbz-2" target="NuGAk5j5LmfKKiWQiwvZ-21" edge="1">
          <mxGeometry width="50" height="50" relative="1" as="geometry">
            <mxPoint x="472" y="225" as="sourcePoint" />
            <mxPoint x="700" y="248" as="targetPoint" />
          </mxGeometry>
        </mxCell>
        <mxCell id="NuGAk5j5LmfKKiWQiwvZ-23" value="Персональные данные пациента" style="edgeLabel;html=1;align=center;verticalAlign=middle;resizable=0;points=[];" parent="NuGAk5j5LmfKKiWQiwvZ-22" vertex="1" connectable="0">
          <mxGeometry x="-0.0424" relative="1" as="geometry">
            <mxPoint as="offset" />
          </mxGeometry>
        </mxCell>
        <mxCell id="3pvtWKBEGjcHhyiW1oW8-1" value="&lt;b&gt;Меры по обеспечению безопасности данных:&lt;/b&gt;&lt;div&gt;&lt;ul&gt;&lt;li&gt;шифрование&lt;/li&gt;&lt;li&gt;обфускация (токенизация)&lt;/li&gt;&lt;li&gt;контроль доступа (RBAC/ABAC)&lt;/li&gt;&lt;li&gt;аудит доступа&amp;nbsp;&lt;/li&gt;&lt;li&gt;автоматизация ввода и обработки&lt;/li&gt;&lt;li&gt;резервное копирование.&lt;/li&gt;&lt;/ul&gt;&lt;/div&gt;" style="text;html=1;align=left;verticalAlign=middle;whiteSpace=wrap;rounded=0;labelBackgroundColor=default;" vertex="1" parent="btqrH7T7CtDXu2hgY2Os-8">
          <mxGeometry x="900" y="103" width="320" height="140" as="geometry" />
        </mxCell>
        <mxCell id="btqrH7T7CtDXu2hgY2Os-9" value="2. Запись на приём" style="swimlane;whiteSpace=wrap;html=1;" parent="1" vertex="1">
          <mxGeometry x="100" y="520" width="1260" height="320" as="geometry" />
        </mxCell>
        <mxCell id="btqrH7T7CtDXu2hgY2Os-1" value="Пациент" style="html=1;dashed=0;whiteSpace=wrap;" parent="btqrH7T7CtDXu2hgY2Os-9" vertex="1">
          <mxGeometry x="60" y="143" width="100" height="60" as="geometry" />
        </mxCell>
        <mxCell id="btqrH7T7CtDXu2hgY2Os-2" value="Запись на ресепшене" style="shape=ellipse;html=1;dashed=0;whiteSpace=wrap;aspect=fixed;perimeter=ellipsePerimeter;" parent="btqrH7T7CtDXu2hgY2Os-9" vertex="1">
          <mxGeometry x="360" y="113" width="120" height="120" as="geometry" />
        </mxCell>
        <mxCell id="btqrH7T7CtDXu2hgY2Os-3" value="" style="endArrow=classic;html=1;rounded=0;exitX=1;exitY=0.5;exitDx=0;exitDy=0;entryX=0;entryY=0.5;entryDx=0;entryDy=0;" parent="btqrH7T7CtDXu2hgY2Os-9" source="btqrH7T7CtDXu2hgY2Os-1" target="btqrH7T7CtDXu2hgY2Os-2" edge="1">
          <mxGeometry width="50" height="50" relative="1" as="geometry">
            <mxPoint x="430" y="253" as="sourcePoint" />
            <mxPoint x="480" y="203" as="targetPoint" />
          </mxGeometry>
        </mxCell>
        <mxCell id="btqrH7T7CtDXu2hgY2Os-4" value="Данные для записи на приём и&amp;nbsp;&lt;div&gt;персональные данные&amp;nbsp;&lt;div&gt;для идентификации в системе&lt;/div&gt;&lt;/div&gt;" style="edgeLabel;html=1;align=center;verticalAlign=middle;resizable=0;points=[];" parent="btqrH7T7CtDXu2hgY2Os-3" vertex="1" connectable="0">
          <mxGeometry x="-0.0424" relative="1" as="geometry">
            <mxPoint as="offset" />
          </mxGeometry>
        </mxCell>
        <mxCell id="btqrH7T7CtDXu2hgY2Os-5" value="Excel-файл с записями пациентов к конкретному специалисту&amp;nbsp;" style="html=1;dashed=0;whiteSpace=wrap;shape=partialRectangle;right=0;left=0;" parent="btqrH7T7CtDXu2hgY2Os-9" vertex="1">
          <mxGeometry x="689" y="185" width="120" height="60" as="geometry" />
        </mxCell>
        <mxCell id="btqrH7T7CtDXu2hgY2Os-6" value="" style="endArrow=classic;html=1;rounded=0;exitX=1;exitY=1;exitDx=0;exitDy=0;entryX=0;entryY=0.5;entryDx=0;entryDy=0;edgeStyle=orthogonalEdgeStyle;" parent="btqrH7T7CtDXu2hgY2Os-9" source="btqrH7T7CtDXu2hgY2Os-2" target="btqrH7T7CtDXu2hgY2Os-5" edge="1">
          <mxGeometry width="50" height="50" relative="1" as="geometry">
            <mxPoint x="170" y="183" as="sourcePoint" />
            <mxPoint x="370" y="183" as="targetPoint" />
          </mxGeometry>
        </mxCell>
        <mxCell id="btqrH7T7CtDXu2hgY2Os-7" value="Информация о записи&amp;nbsp;&lt;div&gt;на приём к специалисту&lt;/div&gt;" style="edgeLabel;html=1;align=center;verticalAlign=middle;resizable=0;points=[];" parent="btqrH7T7CtDXu2hgY2Os-6" vertex="1" connectable="0">
          <mxGeometry x="-0.0424" relative="1" as="geometry">
            <mxPoint as="offset" />
          </mxGeometry>
        </mxCell>
        <mxCell id="UNdUCdz2zWd_nTNw_HOM-1" value="Excel-файл со списком пациентов на общем диске" style="html=1;dashed=0;whiteSpace=wrap;shape=partialRectangle;right=0;left=0;" parent="btqrH7T7CtDXu2hgY2Os-9" vertex="1">
          <mxGeometry x="689" y="100" width="120" height="60" as="geometry" />
        </mxCell>
        <mxCell id="UNdUCdz2zWd_nTNw_HOM-2" value="" style="endArrow=classic;html=1;rounded=0;entryX=1;entryY=0;entryDx=0;entryDy=0;edgeStyle=orthogonalEdgeStyle;exitX=0;exitY=0.5;exitDx=0;exitDy=0;" parent="btqrH7T7CtDXu2hgY2Os-9" source="UNdUCdz2zWd_nTNw_HOM-1" target="btqrH7T7CtDXu2hgY2Os-2" edge="1">
          <mxGeometry width="50" height="50" relative="1" as="geometry">
            <mxPoint x="600" y="73" as="sourcePoint" />
            <mxPoint x="698" y="211" as="targetPoint" />
          </mxGeometry>
        </mxCell>
        <mxCell id="UNdUCdz2zWd_nTNw_HOM-3" value="Персональные данные пациента&lt;div&gt;для идентификации&lt;/div&gt;" style="edgeLabel;html=1;align=center;verticalAlign=middle;resizable=0;points=[];" parent="UNdUCdz2zWd_nTNw_HOM-2" vertex="1" connectable="0">
          <mxGeometry x="-0.0424" relative="1" as="geometry">
            <mxPoint as="offset" />
          </mxGeometry>
        </mxCell>
        <mxCell id="3pvtWKBEGjcHhyiW1oW8-2" value="&lt;b&gt;Меры по обеспечению безопасности данных:&lt;/b&gt;&lt;div&gt;&lt;ul&gt;&lt;li&gt;шифрование&lt;/li&gt;&lt;li&gt;обфускация (токенизация)&lt;/li&gt;&lt;li&gt;контроль доступа (RBAC/ABAC)&lt;/li&gt;&lt;li&gt;аудит доступа&amp;nbsp;&lt;/li&gt;&lt;li&gt;автоматизация ввода и обработки&lt;/li&gt;&lt;li&gt;резервное копирование.&lt;/li&gt;&lt;/ul&gt;&lt;/div&gt;" style="text;html=1;align=left;verticalAlign=middle;whiteSpace=wrap;rounded=0;labelBackgroundColor=default;" vertex="1" parent="btqrH7T7CtDXu2hgY2Os-9">
          <mxGeometry x="900" y="103" width="320" height="140" as="geometry" />
        </mxCell>
        <mxCell id="NuGAk5j5LmfKKiWQiwvZ-1" value="3. Приём у врача" style="swimlane;whiteSpace=wrap;html=1;" parent="1" vertex="1">
          <mxGeometry x="100" y="880" width="1260" height="320" as="geometry" />
        </mxCell>
        <mxCell id="NuGAk5j5LmfKKiWQiwvZ-2" value="Пациент" style="html=1;dashed=0;whiteSpace=wrap;" parent="NuGAk5j5LmfKKiWQiwvZ-1" vertex="1">
          <mxGeometry x="60" y="140" width="100" height="60" as="geometry" />
        </mxCell>
        <mxCell id="NuGAk5j5LmfKKiWQiwvZ-3" value="Приём у врача" style="shape=ellipse;html=1;dashed=0;whiteSpace=wrap;aspect=fixed;perimeter=ellipsePerimeter;" parent="NuGAk5j5LmfKKiWQiwvZ-1" vertex="1">
          <mxGeometry x="360" y="110" width="120" height="120" as="geometry" />
        </mxCell>
        <mxCell id="NuGAk5j5LmfKKiWQiwvZ-4" value="" style="endArrow=classic;html=1;rounded=0;exitX=1;exitY=0.5;exitDx=0;exitDy=0;entryX=0;entryY=0.5;entryDx=0;entryDy=0;" parent="NuGAk5j5LmfKKiWQiwvZ-1" source="NuGAk5j5LmfKKiWQiwvZ-2" target="NuGAk5j5LmfKKiWQiwvZ-3" edge="1">
          <mxGeometry width="50" height="50" relative="1" as="geometry">
            <mxPoint x="430" y="250" as="sourcePoint" />
            <mxPoint x="480" y="200" as="targetPoint" />
          </mxGeometry>
        </mxCell>
        <mxCell id="NuGAk5j5LmfKKiWQiwvZ-5" value="Медицинские&amp;nbsp;&lt;div&gt;данные пациента&lt;/div&gt;" style="edgeLabel;html=1;align=center;verticalAlign=middle;resizable=0;points=[];" parent="NuGAk5j5LmfKKiWQiwvZ-4" vertex="1" connectable="0">
          <mxGeometry x="-0.0424" relative="1" as="geometry">
            <mxPoint as="offset" />
          </mxGeometry>
        </mxCell>
        <mxCell id="NuGAk5j5LmfKKiWQiwvZ-7" value="" style="endArrow=classic;html=1;rounded=0;exitX=0.984;exitY=0.62;exitDx=0;exitDy=0;entryX=0;entryY=0.75;entryDx=0;entryDy=0;exitPerimeter=0;edgeStyle=orthogonalEdgeStyle;" parent="NuGAk5j5LmfKKiWQiwvZ-1" source="NuGAk5j5LmfKKiWQiwvZ-3" target="UNdUCdz2zWd_nTNw_HOM-5" edge="1">
          <mxGeometry width="50" height="50" relative="1" as="geometry">
            <mxPoint x="170" y="180" as="sourcePoint" />
            <mxPoint x="690" y="170" as="targetPoint" />
          </mxGeometry>
        </mxCell>
        <mxCell id="NuGAk5j5LmfKKiWQiwvZ-8" value="Медицинские данные пациента" style="edgeLabel;html=1;align=center;verticalAlign=middle;resizable=0;points=[];" parent="NuGAk5j5LmfKKiWQiwvZ-7" vertex="1" connectable="0">
          <mxGeometry x="-0.0424" relative="1" as="geometry">
            <mxPoint as="offset" />
          </mxGeometry>
        </mxCell>
        <mxCell id="UNdUCdz2zWd_nTNw_HOM-4" value="Excel-файл с записями пациентов к конкретному специалисту&amp;nbsp;" style="html=1;dashed=0;whiteSpace=wrap;shape=partialRectangle;right=0;left=0;" parent="NuGAk5j5LmfKKiWQiwvZ-1" vertex="1">
          <mxGeometry x="690" y="60" width="120" height="60" as="geometry" />
        </mxCell>
        <mxCell id="UNdUCdz2zWd_nTNw_HOM-5" value="Файлы пациента в разных форматах на общем диске" style="html=1;dashed=0;whiteSpace=wrap;shape=partialRectangle;right=0;left=0;" parent="NuGAk5j5LmfKKiWQiwvZ-1" vertex="1">
          <mxGeometry x="690" y="140" width="120" height="60" as="geometry" />
        </mxCell>
        <mxCell id="UNdUCdz2zWd_nTNw_HOM-6" value="Excel-файл с реестром анализов" style="html=1;dashed=0;whiteSpace=wrap;shape=partialRectangle;right=0;left=0;" parent="NuGAk5j5LmfKKiWQiwvZ-1" vertex="1">
          <mxGeometry x="690" y="220" width="120" height="60" as="geometry" />
        </mxCell>
        <mxCell id="UNdUCdz2zWd_nTNw_HOM-7" value="" style="endArrow=classic;html=1;rounded=0;exitX=0;exitY=0.5;exitDx=0;exitDy=0;entryX=0.5;entryY=0;entryDx=0;entryDy=0;edgeStyle=orthogonalEdgeStyle;" parent="NuGAk5j5LmfKKiWQiwvZ-1" source="UNdUCdz2zWd_nTNw_HOM-4" target="NuGAk5j5LmfKKiWQiwvZ-3" edge="1">
          <mxGeometry width="50" height="50" relative="1" as="geometry">
            <mxPoint x="490" y="180" as="sourcePoint" />
            <mxPoint x="700" y="180" as="targetPoint" />
          </mxGeometry>
        </mxCell>
        <mxCell id="UNdUCdz2zWd_nTNw_HOM-8" value="Информация о записи на приём&lt;div&gt;к данному врачу&lt;/div&gt;" style="edgeLabel;html=1;align=center;verticalAlign=middle;resizable=0;points=[];" parent="UNdUCdz2zWd_nTNw_HOM-7" vertex="1" connectable="0">
          <mxGeometry x="-0.0424" relative="1" as="geometry">
            <mxPoint as="offset" />
          </mxGeometry>
        </mxCell>
        <mxCell id="UNdUCdz2zWd_nTNw_HOM-9" value="" style="endArrow=classic;html=1;rounded=0;exitX=0;exitY=0.25;exitDx=0;exitDy=0;entryX=0.985;entryY=0.378;entryDx=0;entryDy=0;entryPerimeter=0;edgeStyle=orthogonalEdgeStyle;" parent="NuGAk5j5LmfKKiWQiwvZ-1" source="UNdUCdz2zWd_nTNw_HOM-5" target="NuGAk5j5LmfKKiWQiwvZ-3" edge="1">
          <mxGeometry width="50" height="50" relative="1" as="geometry">
            <mxPoint x="488" y="194" as="sourcePoint" />
            <mxPoint x="700" y="195" as="targetPoint" />
          </mxGeometry>
        </mxCell>
        <mxCell id="UNdUCdz2zWd_nTNw_HOM-10" value="&lt;font face=&quot;monospace&quot; color=&quot;#ba0000&quot;&gt;&lt;span style=&quot;font-size: 0px; background-color: rgb(251, 251, 251);&quot;&gt;ММ&lt;/span&gt;&lt;/font&gt;" style="edgeLabel;html=1;align=center;verticalAlign=middle;resizable=0;points=[];" parent="UNdUCdz2zWd_nTNw_HOM-9" vertex="1" connectable="0">
          <mxGeometry x="-0.0424" relative="1" as="geometry">
            <mxPoint as="offset" />
          </mxGeometry>
        </mxCell>
        <mxCell id="UNdUCdz2zWd_nTNw_HOM-11" value="Медицинские данные пациента" style="edgeLabel;html=1;align=center;verticalAlign=middle;resizable=0;points=[];" parent="UNdUCdz2zWd_nTNw_HOM-9" vertex="1" connectable="0">
          <mxGeometry x="-0.1048" y="-1" relative="1" as="geometry">
            <mxPoint as="offset" />
          </mxGeometry>
        </mxCell>
        <mxCell id="UNdUCdz2zWd_nTNw_HOM-12" value="" style="endArrow=classic;html=1;rounded=0;exitX=0;exitY=0.5;exitDx=0;exitDy=0;entryX=0.5;entryY=1;entryDx=0;entryDy=0;edgeStyle=orthogonalEdgeStyle;" parent="NuGAk5j5LmfKKiWQiwvZ-1" source="UNdUCdz2zWd_nTNw_HOM-6" target="NuGAk5j5LmfKKiWQiwvZ-3" edge="1">
          <mxGeometry width="50" height="50" relative="1" as="geometry">
            <mxPoint x="662" y="280" as="sourcePoint" />
            <mxPoint x="450" y="281" as="targetPoint" />
          </mxGeometry>
        </mxCell>
        <mxCell id="UNdUCdz2zWd_nTNw_HOM-13" value="&lt;font face=&quot;monospace&quot; color=&quot;#ba0000&quot;&gt;&lt;span style=&quot;font-size: 0px; background-color: rgb(251, 251, 251);&quot;&gt;ММ&lt;/span&gt;&lt;/font&gt;" style="edgeLabel;html=1;align=center;verticalAlign=middle;resizable=0;points=[];" parent="UNdUCdz2zWd_nTNw_HOM-12" vertex="1" connectable="0">
          <mxGeometry x="-0.0424" relative="1" as="geometry">
            <mxPoint as="offset" />
          </mxGeometry>
        </mxCell>
        <mxCell id="UNdUCdz2zWd_nTNw_HOM-14" value="Результаты анализов пациента" style="edgeLabel;html=1;align=center;verticalAlign=middle;resizable=0;points=[];" parent="UNdUCdz2zWd_nTNw_HOM-12" vertex="1" connectable="0">
          <mxGeometry x="-0.1048" y="-1" relative="1" as="geometry">
            <mxPoint as="offset" />
          </mxGeometry>
        </mxCell>
        <mxCell id="3pvtWKBEGjcHhyiW1oW8-3" value="&lt;b&gt;Меры по обеспечению безопасности данных:&lt;/b&gt;&lt;div&gt;&lt;ul&gt;&lt;li&gt;шифрование&lt;/li&gt;&lt;li&gt;обфускация (токенизация)&lt;/li&gt;&lt;li&gt;контроль доступа (RBAC/ABAC)&lt;/li&gt;&lt;li&gt;аудит доступа&amp;nbsp;&lt;/li&gt;&lt;li&gt;автоматизация ввода и обработки&lt;/li&gt;&lt;li&gt;резервное копирование.&lt;/li&gt;&lt;/ul&gt;&lt;/div&gt;" style="text;html=1;align=left;verticalAlign=middle;whiteSpace=wrap;rounded=0;labelBackgroundColor=default;" vertex="1" parent="NuGAk5j5LmfKKiWQiwvZ-1">
          <mxGeometry x="900" y="100" width="320" height="140" as="geometry" />
        </mxCell>
        <mxCell id="NuGAk5j5LmfKKiWQiwvZ-11" value="5. Приём платежей" style="swimlane;whiteSpace=wrap;html=1;" parent="1" vertex="1">
          <mxGeometry x="100" y="1600" width="1260" height="320" as="geometry" />
        </mxCell>
        <mxCell id="NuGAk5j5LmfKKiWQiwvZ-12" value="Пациент" style="html=1;dashed=0;whiteSpace=wrap;" parent="NuGAk5j5LmfKKiWQiwvZ-11" vertex="1">
          <mxGeometry x="60" y="142" width="100" height="60" as="geometry" />
        </mxCell>
        <mxCell id="NuGAk5j5LmfKKiWQiwvZ-13" value="Платёж через кассу" style="shape=ellipse;html=1;dashed=0;whiteSpace=wrap;aspect=fixed;perimeter=ellipsePerimeter;" parent="NuGAk5j5LmfKKiWQiwvZ-11" vertex="1">
          <mxGeometry x="360" y="112" width="120" height="120" as="geometry" />
        </mxCell>
        <mxCell id="NuGAk5j5LmfKKiWQiwvZ-14" value="" style="endArrow=classic;html=1;rounded=0;exitX=1;exitY=0.5;exitDx=0;exitDy=0;entryX=0;entryY=0.5;entryDx=0;entryDy=0;" parent="NuGAk5j5LmfKKiWQiwvZ-11" source="NuGAk5j5LmfKKiWQiwvZ-12" target="NuGAk5j5LmfKKiWQiwvZ-13" edge="1">
          <mxGeometry width="50" height="50" relative="1" as="geometry">
            <mxPoint x="430" y="252" as="sourcePoint" />
            <mxPoint x="480" y="202" as="targetPoint" />
          </mxGeometry>
        </mxCell>
        <mxCell id="NuGAk5j5LmfKKiWQiwvZ-15" value="Платёжные данные" style="edgeLabel;html=1;align=center;verticalAlign=middle;resizable=0;points=[];" parent="NuGAk5j5LmfKKiWQiwvZ-14" vertex="1" connectable="0">
          <mxGeometry x="-0.0424" relative="1" as="geometry">
            <mxPoint as="offset" />
          </mxGeometry>
        </mxCell>
        <mxCell id="NuGAk5j5LmfKKiWQiwvZ-16" value="Excel-файл с данными о платежах" style="html=1;dashed=0;whiteSpace=wrap;shape=partialRectangle;right=0;left=0;" parent="NuGAk5j5LmfKKiWQiwvZ-11" vertex="1">
          <mxGeometry x="690" y="185" width="120" height="60" as="geometry" />
        </mxCell>
        <mxCell id="NuGAk5j5LmfKKiWQiwvZ-17" value="" style="endArrow=classic;html=1;rounded=0;exitX=1;exitY=1;exitDx=0;exitDy=0;entryX=0;entryY=0.5;entryDx=0;entryDy=0;edgeStyle=orthogonalEdgeStyle;" parent="NuGAk5j5LmfKKiWQiwvZ-11" source="NuGAk5j5LmfKKiWQiwvZ-13" target="NuGAk5j5LmfKKiWQiwvZ-16" edge="1">
          <mxGeometry width="50" height="50" relative="1" as="geometry">
            <mxPoint x="170" y="182" as="sourcePoint" />
            <mxPoint x="370" y="182" as="targetPoint" />
          </mxGeometry>
        </mxCell>
        <mxCell id="NuGAk5j5LmfKKiWQiwvZ-18" value="Информация о платеже" style="edgeLabel;html=1;align=center;verticalAlign=middle;resizable=0;points=[];" parent="NuGAk5j5LmfKKiWQiwvZ-17" vertex="1" connectable="0">
          <mxGeometry x="-0.0424" relative="1" as="geometry">
            <mxPoint as="offset" />
          </mxGeometry>
        </mxCell>
        <mxCell id="UNdUCdz2zWd_nTNw_HOM-33" value="1С Бухгалтерия предприятия" style="html=1;dashed=0;whiteSpace=wrap;shape=partialRectangle;right=0;left=0;" parent="NuGAk5j5LmfKKiWQiwvZ-11" vertex="1">
          <mxGeometry x="690" y="100" width="120" height="60" as="geometry" />
        </mxCell>
        <mxCell id="UNdUCdz2zWd_nTNw_HOM-34" value="" style="endArrow=classic;html=1;rounded=0;exitX=1;exitY=0;exitDx=0;exitDy=0;entryX=0;entryY=0.5;entryDx=0;entryDy=0;edgeStyle=orthogonalEdgeStyle;" parent="NuGAk5j5LmfKKiWQiwvZ-11" source="NuGAk5j5LmfKKiWQiwvZ-13" target="UNdUCdz2zWd_nTNw_HOM-33" edge="1">
          <mxGeometry width="50" height="50" relative="1" as="geometry">
            <mxPoint x="472" y="224" as="sourcePoint" />
            <mxPoint x="700" y="225" as="targetPoint" />
          </mxGeometry>
        </mxCell>
        <mxCell id="UNdUCdz2zWd_nTNw_HOM-35" value="Информация о платеже" style="edgeLabel;html=1;align=center;verticalAlign=middle;resizable=0;points=[];" parent="UNdUCdz2zWd_nTNw_HOM-34" vertex="1" connectable="0">
          <mxGeometry x="-0.0424" relative="1" as="geometry">
            <mxPoint as="offset" />
          </mxGeometry>
        </mxCell>
        <mxCell id="3pvtWKBEGjcHhyiW1oW8-5" value="&lt;b&gt;Меры по обеспечению безопасности данных:&lt;/b&gt;&lt;div&gt;&lt;ul&gt;&lt;li&gt;шифрование&lt;/li&gt;&lt;li&gt;обфускация (токенизация)&lt;/li&gt;&lt;li&gt;контроль доступа (RBAC/ABAC)&lt;/li&gt;&lt;li&gt;аудит доступа&amp;nbsp;&lt;/li&gt;&lt;li&gt;резервное копирование.&lt;br&gt;&lt;/li&gt;&lt;/ul&gt;&lt;/div&gt;" style="text;html=1;align=left;verticalAlign=middle;whiteSpace=wrap;rounded=0;labelBackgroundColor=default;" vertex="1" parent="NuGAk5j5LmfKKiWQiwvZ-11">
          <mxGeometry x="900" y="102" width="320" height="140" as="geometry" />
        </mxCell>
        <mxCell id="UNdUCdz2zWd_nTNw_HOM-15" value="4. Учёт анализов" style="swimlane;whiteSpace=wrap;html=1;" parent="1" vertex="1">
          <mxGeometry x="100" y="1240" width="1260" height="320" as="geometry" />
        </mxCell>
        <mxCell id="UNdUCdz2zWd_nTNw_HOM-16" value="Лаборатория" style="html=1;dashed=0;whiteSpace=wrap;" parent="UNdUCdz2zWd_nTNw_HOM-15" vertex="1">
          <mxGeometry x="60" y="140" width="100" height="60" as="geometry" />
        </mxCell>
        <mxCell id="UNdUCdz2zWd_nTNw_HOM-17" value="Учёт анализов" style="shape=ellipse;html=1;dashed=0;whiteSpace=wrap;aspect=fixed;perimeter=ellipsePerimeter;" parent="UNdUCdz2zWd_nTNw_HOM-15" vertex="1">
          <mxGeometry x="360" y="110" width="120" height="120" as="geometry" />
        </mxCell>
        <mxCell id="UNdUCdz2zWd_nTNw_HOM-18" value="" style="endArrow=classic;html=1;rounded=0;exitX=1;exitY=0.5;exitDx=0;exitDy=0;entryX=0;entryY=0.5;entryDx=0;entryDy=0;" parent="UNdUCdz2zWd_nTNw_HOM-15" source="UNdUCdz2zWd_nTNw_HOM-16" target="UNdUCdz2zWd_nTNw_HOM-17" edge="1">
          <mxGeometry width="50" height="50" relative="1" as="geometry">
            <mxPoint x="430" y="250" as="sourcePoint" />
            <mxPoint x="480" y="200" as="targetPoint" />
          </mxGeometry>
        </mxCell>
        <mxCell id="UNdUCdz2zWd_nTNw_HOM-19" value="Результаты анализов и данные&amp;nbsp;&lt;div&gt;для идентификации пациента&lt;/div&gt;" style="edgeLabel;html=1;align=center;verticalAlign=middle;resizable=0;points=[];" parent="UNdUCdz2zWd_nTNw_HOM-18" vertex="1" connectable="0">
          <mxGeometry x="-0.0424" relative="1" as="geometry">
            <mxPoint as="offset" />
          </mxGeometry>
        </mxCell>
        <mxCell id="UNdUCdz2zWd_nTNw_HOM-24" value="Excel-файл с реестром анализов" style="html=1;dashed=0;whiteSpace=wrap;shape=partialRectangle;right=0;left=0;" parent="UNdUCdz2zWd_nTNw_HOM-15" vertex="1">
          <mxGeometry x="690" y="140" width="120" height="60" as="geometry" />
        </mxCell>
        <mxCell id="UNdUCdz2zWd_nTNw_HOM-30" value="" style="endArrow=classic;html=1;rounded=0;exitX=1;exitY=0.5;exitDx=0;exitDy=0;entryX=0;entryY=0.5;entryDx=0;entryDy=0;edgeStyle=orthogonalEdgeStyle;" parent="UNdUCdz2zWd_nTNw_HOM-15" source="UNdUCdz2zWd_nTNw_HOM-17" target="UNdUCdz2zWd_nTNw_HOM-24" edge="1">
          <mxGeometry width="50" height="50" relative="1" as="geometry">
            <mxPoint x="662" y="280" as="sourcePoint" />
            <mxPoint x="450" y="281" as="targetPoint" />
          </mxGeometry>
        </mxCell>
        <mxCell id="UNdUCdz2zWd_nTNw_HOM-31" value="&lt;font face=&quot;monospace&quot; color=&quot;#ba0000&quot;&gt;&lt;span style=&quot;font-size: 0px; background-color: rgb(251, 251, 251);&quot;&gt;ММ&lt;/span&gt;&lt;/font&gt;" style="edgeLabel;html=1;align=center;verticalAlign=middle;resizable=0;points=[];" parent="UNdUCdz2zWd_nTNw_HOM-30" vertex="1" connectable="0">
          <mxGeometry x="-0.0424" relative="1" as="geometry">
            <mxPoint as="offset" />
          </mxGeometry>
        </mxCell>
        <mxCell id="UNdUCdz2zWd_nTNw_HOM-32" value="Результаты анализов и данные&amp;nbsp;&lt;div&gt;для идентификации пациента&lt;/div&gt;" style="edgeLabel;html=1;align=center;verticalAlign=middle;resizable=0;points=[];" parent="UNdUCdz2zWd_nTNw_HOM-30" vertex="1" connectable="0">
          <mxGeometry x="-0.1048" y="-1" relative="1" as="geometry">
            <mxPoint as="offset" />
          </mxGeometry>
        </mxCell>
        <mxCell id="3pvtWKBEGjcHhyiW1oW8-4" value="&lt;b&gt;Меры по обеспечению безопасности данных:&lt;/b&gt;&lt;div&gt;&lt;ul&gt;&lt;li&gt;шифрование и передача по защищённым каналам&lt;/li&gt;&lt;li&gt;обфускация (токенизация)&lt;/li&gt;&lt;li&gt;контроль доступа (RBAC/ABAC)&lt;/li&gt;&lt;li&gt;аудит доступа&amp;nbsp;&lt;/li&gt;&lt;li&gt;резервное копирование.&lt;br&gt;&lt;/li&gt;&lt;/ul&gt;&lt;/div&gt;" style="text;html=1;align=left;verticalAlign=middle;whiteSpace=wrap;rounded=0;labelBackgroundColor=default;" vertex="1" parent="UNdUCdz2zWd_nTNw_HOM-15">
          <mxGeometry x="900" y="100" width="330" height="140" as="geometry" />
        </mxCell>
        <mxCell id="UNdUCdz2zWd_nTNw_HOM-36" value="6. Обработка платежей" style="swimlane;whiteSpace=wrap;html=1;" parent="1" vertex="1">
          <mxGeometry x="100" y="1960" width="1260" height="320" as="geometry" />
        </mxCell>
        <mxCell id="UNdUCdz2zWd_nTNw_HOM-38" value="Обработка платежей в бухгалтерии" style="shape=ellipse;html=1;dashed=0;whiteSpace=wrap;aspect=fixed;perimeter=ellipsePerimeter;" parent="UNdUCdz2zWd_nTNw_HOM-36" vertex="1">
          <mxGeometry x="200" y="105" width="120" height="120" as="geometry" />
        </mxCell>
        <mxCell id="UNdUCdz2zWd_nTNw_HOM-44" value="1С Бухгалтерия предприятия" style="html=1;dashed=0;whiteSpace=wrap;shape=partialRectangle;right=0;left=0;" parent="UNdUCdz2zWd_nTNw_HOM-36" vertex="1">
          <mxGeometry x="500" y="125" width="120" height="60" as="geometry" />
        </mxCell>
        <mxCell id="UNdUCdz2zWd_nTNw_HOM-45" value="" style="endArrow=classic;html=1;rounded=0;exitX=0.5;exitY=1;exitDx=0;exitDy=0;entryX=0.5;entryY=1;entryDx=0;entryDy=0;edgeStyle=orthogonalEdgeStyle;" parent="UNdUCdz2zWd_nTNw_HOM-36" source="UNdUCdz2zWd_nTNw_HOM-38" target="UNdUCdz2zWd_nTNw_HOM-44" edge="1">
          <mxGeometry width="50" height="50" relative="1" as="geometry">
            <mxPoint x="482" y="237" as="sourcePoint" />
            <mxPoint x="710" y="238" as="targetPoint" />
            <Array as="points">
              <mxPoint x="260" y="245" />
              <mxPoint x="560" y="245" />
            </Array>
          </mxGeometry>
        </mxCell>
        <mxCell id="UNdUCdz2zWd_nTNw_HOM-46" value="Данные финансового учёта" style="edgeLabel;html=1;align=center;verticalAlign=middle;resizable=0;points=[];" parent="UNdUCdz2zWd_nTNw_HOM-45" vertex="1" connectable="0">
          <mxGeometry x="-0.0424" relative="1" as="geometry">
            <mxPoint as="offset" />
          </mxGeometry>
        </mxCell>
        <mxCell id="UNdUCdz2zWd_nTNw_HOM-47" value="" style="endArrow=classic;html=1;rounded=0;exitX=0.5;exitY=0;exitDx=0;exitDy=0;entryX=0.5;entryY=0;entryDx=0;entryDy=0;edgeStyle=orthogonalEdgeStyle;" parent="UNdUCdz2zWd_nTNw_HOM-36" source="UNdUCdz2zWd_nTNw_HOM-44" target="UNdUCdz2zWd_nTNw_HOM-38" edge="1">
          <mxGeometry width="50" height="50" relative="1" as="geometry">
            <mxPoint x="482" y="237" as="sourcePoint" />
            <mxPoint x="710" y="168" as="targetPoint" />
            <Array as="points">
              <mxPoint x="560" y="85" />
              <mxPoint x="260" y="85" />
            </Array>
          </mxGeometry>
        </mxCell>
        <mxCell id="UNdUCdz2zWd_nTNw_HOM-48" value="Информация о платежах" style="edgeLabel;html=1;align=center;verticalAlign=middle;resizable=0;points=[];" parent="UNdUCdz2zWd_nTNw_HOM-47" vertex="1" connectable="0">
          <mxGeometry x="-0.0424" relative="1" as="geometry">
            <mxPoint as="offset" />
          </mxGeometry>
        </mxCell>
        <mxCell id="3pvtWKBEGjcHhyiW1oW8-6" value="&lt;b&gt;Меры по обеспечению безопасности данных:&lt;/b&gt;&lt;div&gt;&lt;ul&gt;&lt;li&gt;шифрование&lt;/li&gt;&lt;li&gt;обфускация (токенизация)&lt;/li&gt;&lt;li&gt;контроль доступа (RBAC/ABAC)&lt;/li&gt;&lt;li&gt;аудит доступа&amp;nbsp;&lt;/li&gt;&lt;li&gt;резервное копирование.&lt;br&gt;&lt;/li&gt;&lt;/ul&gt;&lt;/div&gt;" style="text;html=1;align=left;verticalAlign=middle;whiteSpace=wrap;rounded=0;labelBackgroundColor=default;" vertex="1" parent="UNdUCdz2zWd_nTNw_HOM-36">
          <mxGeometry x="900" y="90" width="320" height="140" as="geometry" />
        </mxCell>
        <mxCell id="UNdUCdz2zWd_nTNw_HOM-49" value="7. Учёт ТМЦ" style="swimlane;whiteSpace=wrap;html=1;" parent="1" vertex="1">
          <mxGeometry x="100" y="2320" width="1260" height="320" as="geometry" />
        </mxCell>
        <mxCell id="UNdUCdz2zWd_nTNw_HOM-50" value="Учёт ТМЦ на складе" style="shape=ellipse;html=1;dashed=0;whiteSpace=wrap;aspect=fixed;perimeter=ellipsePerimeter;" parent="UNdUCdz2zWd_nTNw_HOM-49" vertex="1">
          <mxGeometry x="20" y="110" width="120" height="120" as="geometry" />
        </mxCell>
        <mxCell id="UNdUCdz2zWd_nTNw_HOM-51" value="1С Торговля и склад" style="html=1;dashed=0;whiteSpace=wrap;shape=partialRectangle;right=0;left=0;" parent="UNdUCdz2zWd_nTNw_HOM-49" vertex="1">
          <mxGeometry x="260" y="140" width="120" height="60" as="geometry" />
        </mxCell>
        <mxCell id="UNdUCdz2zWd_nTNw_HOM-52" value="" style="endArrow=classic;html=1;rounded=0;exitX=1;exitY=0.5;exitDx=0;exitDy=0;entryX=0;entryY=0.5;entryDx=0;entryDy=0;edgeStyle=orthogonalEdgeStyle;" parent="UNdUCdz2zWd_nTNw_HOM-49" source="UNdUCdz2zWd_nTNw_HOM-50" target="UNdUCdz2zWd_nTNw_HOM-51" edge="1">
          <mxGeometry width="50" height="50" relative="1" as="geometry">
            <mxPoint x="462" y="252" as="sourcePoint" />
            <mxPoint x="690" y="253" as="targetPoint" />
          </mxGeometry>
        </mxCell>
        <mxCell id="UNdUCdz2zWd_nTNw_HOM-53" value="Данные о ТМЦ" style="edgeLabel;html=1;align=center;verticalAlign=middle;resizable=0;points=[];" parent="UNdUCdz2zWd_nTNw_HOM-52" vertex="1" connectable="0">
          <mxGeometry x="-0.0424" relative="1" as="geometry">
            <mxPoint as="offset" />
          </mxGeometry>
        </mxCell>
        <mxCell id="UNdUCdz2zWd_nTNw_HOM-56" value="1С Бухгалтерия предприятия" style="html=1;dashed=0;whiteSpace=wrap;shape=partialRectangle;right=0;left=0;" parent="UNdUCdz2zWd_nTNw_HOM-49" vertex="1">
          <mxGeometry x="740" y="140" width="120" height="60" as="geometry" />
        </mxCell>
        <mxCell id="UNdUCdz2zWd_nTNw_HOM-57" value="&lt;font style=&quot;font-size: 10px;&quot;&gt;Внутриплатформенный обмен данными&lt;/font&gt;" style="shape=ellipse;html=1;dashed=0;whiteSpace=wrap;aspect=fixed;perimeter=ellipsePerimeter;" parent="UNdUCdz2zWd_nTNw_HOM-49" vertex="1">
          <mxGeometry x="500" y="110" width="120" height="120" as="geometry" />
        </mxCell>
        <mxCell id="UNdUCdz2zWd_nTNw_HOM-58" value="" style="endArrow=classic;html=1;rounded=0;exitX=1;exitY=0.5;exitDx=0;exitDy=0;entryX=0;entryY=0.5;entryDx=0;entryDy=0;edgeStyle=orthogonalEdgeStyle;" parent="UNdUCdz2zWd_nTNw_HOM-49" source="UNdUCdz2zWd_nTNw_HOM-51" target="UNdUCdz2zWd_nTNw_HOM-57" edge="1">
          <mxGeometry width="50" height="50" relative="1" as="geometry">
            <mxPoint x="190" y="180" as="sourcePoint" />
            <mxPoint x="300" y="180" as="targetPoint" />
          </mxGeometry>
        </mxCell>
        <mxCell id="UNdUCdz2zWd_nTNw_HOM-59" value="Данные о ТМЦ" style="edgeLabel;html=1;align=center;verticalAlign=middle;resizable=0;points=[];" parent="UNdUCdz2zWd_nTNw_HOM-58" vertex="1" connectable="0">
          <mxGeometry x="-0.0424" relative="1" as="geometry">
            <mxPoint as="offset" />
          </mxGeometry>
        </mxCell>
        <mxCell id="UNdUCdz2zWd_nTNw_HOM-60" value="" style="endArrow=classic;html=1;rounded=0;exitX=1;exitY=0.5;exitDx=0;exitDy=0;entryX=0;entryY=0.5;entryDx=0;entryDy=0;edgeStyle=orthogonalEdgeStyle;" parent="UNdUCdz2zWd_nTNw_HOM-49" source="UNdUCdz2zWd_nTNw_HOM-57" target="UNdUCdz2zWd_nTNw_HOM-56" edge="1">
          <mxGeometry width="50" height="50" relative="1" as="geometry">
            <mxPoint x="400" y="195" as="sourcePoint" />
            <mxPoint x="512" y="196" as="targetPoint" />
          </mxGeometry>
        </mxCell>
        <mxCell id="UNdUCdz2zWd_nTNw_HOM-61" value="Данные о ТМЦ" style="edgeLabel;html=1;align=center;verticalAlign=middle;resizable=0;points=[];" parent="UNdUCdz2zWd_nTNw_HOM-60" vertex="1" connectable="0">
          <mxGeometry x="-0.0424" relative="1" as="geometry">
            <mxPoint as="offset" />
          </mxGeometry>
        </mxCell>
        <mxCell id="3pvtWKBEGjcHhyiW1oW8-7" value="&lt;b&gt;Меры по обеспечению безопасности данных:&lt;/b&gt;&lt;div&gt;&lt;ul&gt;&lt;li&gt;шифрование&lt;/li&gt;&lt;li&gt;обфускация (токенизация)&lt;/li&gt;&lt;li&gt;контроль доступа (RBAC/ABAC)&lt;/li&gt;&lt;li&gt;аудит доступа&amp;nbsp;&lt;/li&gt;&lt;li&gt;резервное копирование.&lt;br&gt;&lt;/li&gt;&lt;/ul&gt;&lt;/div&gt;" style="text;html=1;align=left;verticalAlign=middle;whiteSpace=wrap;rounded=0;labelBackgroundColor=default;" vertex="1" parent="UNdUCdz2zWd_nTNw_HOM-49">
          <mxGeometry x="900" y="100" width="320" height="140" as="geometry" />
        </mxCell>
        <mxCell id="UNdUCdz2zWd_nTNw_HOM-64" value="Диаграммы потоков данных по процессам в компании &quot;Медикаменте&quot;&lt;div&gt;(в нотации Йордона-Де Марко)&lt;/div&gt;" style="text;html=1;align=center;verticalAlign=middle;whiteSpace=wrap;rounded=0;fontSize=15;fontStyle=1" parent="1" vertex="1">
          <mxGeometry x="445" y="80" width="570" height="30" as="geometry" />
        </mxCell>
      </root>
    </mxGraphModel>
  </diagram>
</mxfile>
